<?xml version="1.0" encoding="UTF-8" standalone="no"?>
<svg
   width="32"
   height="32"
   viewBox="0 0 51 51"
   class="logo-no-text"
   version="1.1"
   id="svg109"
   sodipodi:docname="svgviewer-output.svg"
   inkscape:version="1.2.2 (732a01da63, 2022-12-09)"
   inkscape:export-filename="svgviewer-output.png"
   inkscape:export-xdpi="384"
   inkscape:export-ydpi="384"
   xmlns:inkscape="http://www.inkscape.org/namespaces/inkscape"
   xmlns:sodipodi="http://sodipodi.sourceforge.net/DTD/sodipodi-0.dtd"
   xmlns="http://www.w3.org/2000/svg"
   xmlns:svg="http://www.w3.org/2000/svg">
  <defs
     id="defs113" />
  <sodipodi:namedview
     id="namedview111"
     pagecolor="#ffffff"
     bordercolor="#000000"
     borderopacity="0.25"
     inkscape:showpageshadow="2"
     inkscape:pageopacity="0.0"
     inkscape:pagecheckerboard="0"
     inkscape:deskcolor="#d1d1d1"
     inkscape:document-units="px"
     showgrid="false"
     inkscape:zoom="16.607987"
     inkscape:cx="17.130312"
     inkscape:cy="16.407768"
     inkscape:window-width="1920"
     inkscape:window-height="1001"
     inkscape:window-x="-9"
     inkscape:window-y="-9"
     inkscape:window-maximized="1"
     inkscape:current-layer="svg109"
     showguides="true" />
  <path
     stroke-width="3"
     stroke-miterlimit="10"
     fill="none"
     stroke="#ffffff"
     d="M 25.5,2.5964131 45.511404,14.048206 V 36.951794 L 25.5,48.403587 5.4885961,36.951794 V 14.048206 Z"
     id="path2"
     style="fill:none;fill-opacity:1;stroke:#4a90e1;stroke-width:1.9078;stroke-dasharray:none;stroke-opacity:1" />
  <clipPath
     id="a">
    <path
       d="m 29.182,36.997 c 1.31,0 2.37,-1.007 2.37,-2.249 0,-1.241 -1.06,-2.248 -2.37,-2.248 -1.309,0 -2.37,1.007 -2.37,2.248 0,1.242 1.061,2.249 2.37,2.249 z"
       fill-rule="evenodd"
       id="path4" />
  </clipPath>
  <g
     clip-path="url(#a)"
     id="g9"
     transform="matrix(0.745387,0,0,0.75093729,3.8837778,1.0945384)">
    <path
       d="m 25.812,31.5 h 6.74 v 6.497 h -6.74 z"
       fill="#4a90e2"
       id="path7" />
  </g>
  <clipPath
     id="b">
    <path
       d="m 29.182,46.59 c 1.31,0 2.37,-1.007 2.37,-2.249 0,-1.242 -1.06,-2.248 -2.37,-2.248 -1.309,0 -2.37,1.006 -2.37,2.248 0,1.242 1.061,2.248 2.37,2.248 z"
       fill-rule="evenodd"
       id="path11" />
  </clipPath>
  <g
     clip-path="url(#b)"
     id="g16"
     transform="matrix(0.745387,0,0,0.75093729,3.8837778,1.0945384)">
    <path
       d="m 25.812,41.093 h 6.74 v 6.496 h -6.74 z"
       fill="#4a90e2"
       id="path14" />
  </g>
  <clipPath
     id="c">
    <path
       d="m 29.182,56.182 c 1.31,0 2.37,-1.006 2.37,-2.248 0,-1.242 -1.06,-2.248 -2.37,-2.248 -1.309,0 -2.37,1.006 -2.37,2.248 0,1.242 1.061,2.248 2.37,2.248 z"
       fill-rule="evenodd"
       id="path18" />
  </clipPath>
  <g
     clip-path="url(#c)"
     id="g23"
     transform="matrix(0.745387,0,0,0.75093729,3.8837778,1.0945384)">
    <path
       d="m 25.812,50.686 h 6.74 v 6.496 h -6.74 z"
       fill="#4a90e2"
       id="path21" />
  </g>
  <clipPath
     id="d">
    <path
       d="m 20.065,32.332 c 1.309,0 2.37,-1.007 2.37,-2.248 0,-1.242 -1.061,-2.249 -2.37,-2.249 -1.31,0 -2.37,1.007 -2.37,2.249 0,1.241 1.06,2.248 2.37,2.248 z"
       fill-rule="evenodd"
       id="path25" />
  </clipPath>
  <g
     clip-path="url(#d)"
     id="g30"
     transform="matrix(0.745387,0,0,0.75093729,3.8837778,1.0945384)">
    <path
       d="m 16.694,26.835 h 6.741 v 6.497 h -6.74 z"
       fill="#b2b0b0"
       id="path28" />
  </g>
  <clipPath
     id="e">
    <path
       d="m 20.065,41.925 c 1.309,0 2.37,-1.007 2.37,-2.249 0,-1.241 -1.061,-2.248 -2.37,-2.248 -1.31,0 -2.37,1.007 -2.37,2.248 0,1.242 1.06,2.249 2.37,2.249 z"
       fill-rule="evenodd"
       id="path32" />
  </clipPath>
  <g
     clip-path="url(#e)"
     id="g37"
     transform="matrix(0.745387,0,0,0.75093729,3.8837778,1.0945384)">
    <path
       d="m 16.694,36.428 h 6.741 v 6.497 h -6.74 z"
       fill="#b2b0b0"
       id="path35" />
  </g>
  <clipPath
     id="f">
    <path
       d="m 20.065,51.518 c 1.309,0 2.37,-1.007 2.37,-2.249 0,-1.241 -1.061,-2.248 -2.37,-2.248 -1.31,0 -2.37,1.007 -2.37,2.248 0,1.242 1.06,2.249 2.37,2.249 z"
       fill-rule="evenodd"
       id="path39" />
  </clipPath>
  <g
     clip-path="url(#f)"
     id="g44"
     transform="matrix(0.745387,0,0,0.75093729,3.8837778,1.0945384)">
    <path
       d="m 16.694,46.021 h 6.741 v 6.497 h -6.74 z"
       fill="#b2b0b0"
       id="path42" />
  </g>
  <clipPath
     id="g">
    <path
       d="m 10.947,25.155 c 1.31,0 2.37,-1.006 2.37,-2.248 0,-1.242 -1.06,-2.248 -2.37,-2.248 -1.31,0 -2.37,1.006 -2.37,2.248 0,1.242 1.06,2.248 2.37,2.248 z"
       fill-rule="evenodd"
       id="path46" />
  </clipPath>
  <g
     clip-path="url(#g)"
     id="g51"
     transform="matrix(0.745387,0,0,0.75093729,3.8837778,1.0945384)">
    <path
       d="m 7.576,19.659 h 6.742 v 6.496 H 7.576 Z"
       fill="#b2b0b0"
       id="path49" />
  </g>
  <clipPath
     id="h">
    <path
       d="m 10.947,34.748 c 1.31,0 2.37,-1.006 2.37,-2.248 0,-1.242 -1.06,-2.248 -2.37,-2.248 -1.31,0 -2.37,1.006 -2.37,2.248 0,1.242 1.06,2.248 2.37,2.248 z"
       fill-rule="evenodd"
       id="path53" />
  </clipPath>
  <g
     clip-path="url(#h)"
     id="g58"
     transform="matrix(0.745387,0,0,0.75093729,3.8837778,1.0945384)">
    <path
       d="m 7.576,29.252 h 6.742 v 6.496 H 7.576 Z"
       fill="#b2b0b0"
       id="path56" />
  </g>
  <clipPath
     id="i">
    <path
       d="m 10.947,44.341 c 1.31,0 2.37,-1.006 2.37,-2.248 0,-1.242 -1.06,-2.248 -2.37,-2.248 -1.31,0 -2.37,1.006 -2.37,2.248 0,1.242 1.06,2.248 2.37,2.248 z"
       fill-rule="evenodd"
       id="path60" />
  </clipPath>
  <g
     clip-path="url(#i)"
     id="g65"
     transform="matrix(0.745387,0,0,0.75093729,3.8837778,1.0945384)">
    <path
       d="m 7.576,38.845 h 6.742 v 6.496 H 7.576 Z"
       fill="#b2b0b0"
       id="path63" />
  </g>
  <clipPath
     id="j">
    <path
       d="m 38.3,32.332 c 1.31,0 2.37,-1.007 2.37,-2.248 0,-1.242 -1.06,-2.249 -2.37,-2.249 -1.31,0 -2.37,1.007 -2.37,2.249 0,1.241 1.06,2.248 2.37,2.248 z"
       fill-rule="evenodd"
       id="path67" />
  </clipPath>
  <g
     clip-path="url(#j)"
     id="g72"
     transform="matrix(0.745387,0,0,0.75093729,3.8837778,1.0945384)">
    <path
       d="m 34.93,26.835 h 6.74 v 6.497 h -6.74 z"
       fill="#f5a623"
       id="path70" />
  </g>
  <clipPath
     id="k">
    <path
       d="m 38.3,41.925 c 1.31,0 2.37,-1.007 2.37,-2.249 0,-1.241 -1.06,-2.248 -2.37,-2.248 -1.31,0 -2.37,1.007 -2.37,2.248 0,1.242 1.06,2.249 2.37,2.249 z"
       fill-rule="evenodd"
       id="path74" />
  </clipPath>
  <g
     clip-path="url(#k)"
     id="g79"
     transform="matrix(0.745387,0,0,0.75093729,3.8837778,1.0945384)">
    <path
       d="m 34.93,36.428 h 6.74 v 6.497 h -6.74 z"
       fill="#f5a623"
       id="path77" />
  </g>
  <clipPath
     id="l">
    <path
       d="m 38.3,51.518 c 1.31,0 2.37,-1.007 2.37,-2.249 0,-1.241 -1.06,-2.248 -2.37,-2.248 -1.31,0 -2.37,1.007 -2.37,2.248 0,1.242 1.06,2.249 2.37,2.249 z"
       fill-rule="evenodd"
       id="path81" />
  </clipPath>
  <g
     clip-path="url(#l)"
     id="g86"
     transform="matrix(0.745387,0,0,0.75093729,3.8837778,1.0945384)">
    <path
       d="m 34.93,46.021 h 6.74 v 6.497 h -6.74 z"
       fill="#f5a623"
       id="path84" />
  </g>
  <clipPath
     id="m">
    <path
       d="m 47.418,25.155 c 1.309,0 2.37,-1.006 2.37,-2.248 0,-1.242 -1.061,-2.248 -2.37,-2.248 -1.31,0 -2.37,1.006 -2.37,2.248 0,1.242 1.06,2.248 2.37,2.248 z"
       fill-rule="evenodd"
       id="path88" />
  </clipPath>
  <g
     clip-path="url(#m)"
     id="g93"
     transform="matrix(0.745387,0,0,0.75093729,3.8837778,1.0945384)">
    <path
       d="m 44.047,19.659 h 6.741 v 6.496 h -6.74 z"
       fill="#f5a623"
       id="path91" />
  </g>
  <clipPath
     id="n">
    <path
       d="m 47.418,34.748 c 1.309,0 2.37,-1.006 2.37,-2.248 0,-1.242 -1.061,-2.248 -2.37,-2.248 -1.31,0 -2.37,1.006 -2.37,2.248 0,1.242 1.06,2.248 2.37,2.248 z"
       fill-rule="evenodd"
       id="path95" />
  </clipPath>
  <g
     clip-path="url(#n)"
     id="g100"
     transform="matrix(0.745387,0,0,0.75093729,3.8837778,1.0945384)">
    <path
       d="m 44.047,29.252 h 6.741 v 6.496 h -6.74 z"
       fill="#f5a623"
       id="path98" />
  </g>
  <clipPath
     id="o">
    <path
       d="m 47.418,44.341 c 1.309,0 2.37,-1.006 2.37,-2.248 0,-1.242 -1.061,-2.248 -2.37,-2.248 -1.31,0 -2.37,1.006 -2.37,2.248 0,1.242 1.06,2.248 2.37,2.248 z"
       fill-rule="evenodd"
       id="path102" />
  </clipPath>
  <g
     clip-path="url(#o)"
     id="g107"
     transform="matrix(0.745387,0,0,0.75093729,3.8837778,1.0945384)">
    <path
       d="m 44.047,38.845 h 6.741 v 6.496 h -6.74 z"
       fill="#f5a623"
       id="path105" />
  </g>
</svg>
